<?xml version="1.0" encoding="UTF-8" standalone="no"?>
<svg width="34px" height="35px" viewBox="0 0 34 35" version="1.1" xmlns="http://www.w3.org/2000/svg" xmlns:xlink="http://www.w3.org/1999/xlink" xmlns:sketch="http://www.bohemiancoding.com/sketch/ns">
    <!-- Generator: Sketch 3.5.2 (25235) - http://www.bohemiancoding.com/sketch -->
    <title>Artboard 9</title>
    <desc>Created with Sketch.</desc>
    <defs></defs>
    <g id="Page-1" stroke="none" stroke-width="1" fill="none" fill-rule="evenodd" sketch:type="MSPage">
        <g id="Artboard-9" sketch:type="MSArtboardGroup">
            <path d="M16.5638797,10.8429576 C16.8404544,9.71625891 16.8451895,8.50594689 16.523716,7.30619143 C15.5052555,3.50524545 11.5983547,1.24959521 7.79740874,2.26805562 C3.99646276,3.28651602 1.74081252,7.19341684 2.75927293,10.9943628 C3.10080297,12.2689703 3.76714565,13.3698052 4.64538292,14.2316743 L15.8449488,32.2052854 L16.5638797,10.8429576 Z M9.5,12 C11.1568542,12 12.5,10.6568542 12.5,9 C12.5,7.34314575 11.1568542,6 9.5,6 C7.84314575,6 6.5,7.34314575 6.5,9 C6.5,10.6568542 7.84314575,12 9.5,12 Z" id="Oval-4" stroke="#8663C1" fill="#8663C2" sketch:type="MSShapeGroup"></path>
            <path d="M29.0917757,17.804014 C29.7550893,17.2426843 30.2819815,16.5123831 30.5971674,15.6464169 C31.5957081,12.902949 30.0912543,9.83672692 27.2368758,8.79781812 C24.3824973,7.75890932 21.2590892,9.14072747 20.2605486,11.8841953 C19.9256984,12.8041886 19.8723165,13.7604764 20.0569208,14.6644381 L19.388548,30.4173492 L29.0917757,17.804014 Z M25.5,17 C27.1568542,17 28.5,15.6568542 28.5,14 C28.5,12.3431458 27.1568542,11 25.5,11 C23.8431458,11 22.5,12.3431458 22.5,14 C22.5,15.6568542 23.8431458,17 25.5,17 Z" id="Oval-4" stroke="#4A90E2" fill="#4990E2" sketch:type="MSShapeGroup"></path>
        </g>
    </g>
</svg>