<?xml version="1.0" encoding="utf-8"?>
<!-- Generator: Adobe Illustrator 19.1.0, SVG Export Plug-In . SVG Version: 6.00 Build 0)  -->
<svg version="1.1" xmlns="http://www.w3.org/2000/svg" xmlns:xlink="http://www.w3.org/1999/xlink" x="0px" y="0px"
	 viewBox="-179 -20.8 600.8 600.8" style="enable-background:new -179 -20.8 600.8 600.8;" xml:space="preserve">
<style type="text/css">
	.st0{clip-path:url(#SVGID_2_);fill:#FF0000;}
</style>
<g id="Layer_2">
	<defs>
		<polygon id="SVGID_1_" points="395.3,305.1 421,101.8 236.1,31.6 14.3,137.6 -179,56 -152.9,272.8 -177.9,486.3 27.4,524.9 
			236.9,485 421.8,527.6 		"/>
	</defs>
	<clipPath id="SVGID_2_">
		<use xlink:href="#SVGID_1_"  style="overflow:visible;"/>
	</clipPath>
	<circle class="st0" cx="215.7" cy="468.7" r="117.3"/>
	<circle class="st0" cx="246.1" cy="64.4" r="96"/>
</g>
<g id="Capa_1">
	<g>
		<g>
			<path d="M25,274.5c21,0,38,17,38,38s-17,38-38,38c-21,0-38-17-38-38S4,274.5,25,274.5z"/>
			<path d="M395.3,305.1L421,101.8L236.1,31.6l-221.8,106L-179,56l26.1,216.8l-25,213.5l205.4,38.5L236.9,485l184.9,42.7
				L395.3,305.1z M235.4,53.2l163.8,61.7L388,203.8l-163.3-41.3L235.4,53.2z M213.8,64.4l-8.6,93.1l-0.1,0L91.9,172l-0.7,2.5
				c-0.1,0.5-13.3,49-27.1,71c-8.9-5.3-19-8.8-29.8-10.1l-9.2-81L213.8,64.4z M196.5,272l-98.3,14.8c-5.3-15-15-27.8-27.6-37
				C83.5,229.3,95.1,189.5,98,179l106.4-13.7L196.5,272z M5.3,155.4l9.1,80.2c-29.9,4.1-54.4,25.2-63.3,53.2l-83.8-13l-8-77.7
				c27.8-1.8,48.6-10.9,61.9-27c12-14.5,15.5-31.7,16.2-44.5L5.3,155.4z M-154.8,87.8l84.5,35.7c-0.2,11.8-2.9,28.9-14.4,42.8
				c-12,14.5-31.2,22.6-57,24.3L-154.8,87.8z M-155.9,470.2l20.8-174.4l82.6,12.8c-0.1,1.3-0.2,2.6-0.2,4c0,18.2,6.3,34.9,16.8,48.1
				l-42.9,34.5l-13.5,87L-155.9,470.2z M6,500.5l-90.7-17l13.1-84.3l40.8-32.8c12.5,13,29.5,21.6,48.4,23.4L6,500.5z M-37.3,312.6
				c0-34.3,27.9-62.3,62.3-62.3c34.3,0,62.3,27.9,62.3,62.3c0,34.3-27.9,62.3-62.3,62.3C-9.3,374.8-37.3,346.9-37.3,312.6z
				 M27.4,504.5l-1.8-0.3l12.1-115.1c36.8-6.1,64.9-38.1,64.9-76.6c0-2.1-0.1-4.1-0.3-6.2l96-14.5l8,81.9
				c-42.1,2-73.6,14.9-93.4,38.9c-23.1,27.9-24.2,62.7-23,79.9L27.4,504.5z M97.7,491.2c-0.9-16.3,0.4-48.4,21.3-73.6
				c18.4-22.3,48.2-34.3,88.2-36.1l8.5,87.2L97.7,491.2z M224,170.2l163,41.2l-9.8,77l-161-19.4L224,170.2z M355.1,355l-74.2-8.8
				l13.6,131.6L235,465l-16.9-176l1.7-0.3l155.6,19.8l23,193.4l-96.3-22.2L289.5,355l66.1,7.7L355.1,355z"/>
		</g>
	</g>
</g>
</svg>
